<svg width="65" height="61" viewBox="0 0 65 61" fill="none" xmlns="http://www.w3.org/2000/svg">
<path d="M44.4674 7.75553C46.812 10.1001 46.9527 13.8984 48.1518 16.7856C49.3911 19.78 51.93 22.5869 51.93 25.7755C51.93 28.9642 49.3911 31.771 48.1518 34.7654C46.9594 37.6527 46.8187 41.4442 44.4674 43.7955C42.1161 46.1469 38.3245 46.2808 35.4373 47.4799C32.4429 48.7192 29.6361 51.2581 26.4474 51.2581C23.2587 51.2581 20.4519 48.7192 17.4575 47.4799C14.5703 46.2875 10.7787 46.1469 8.4274 43.7955C6.08279 41.4509 5.94212 37.6527 4.74302 34.7654C3.54392 31.8782 0.964844 28.9642 0.964844 25.7755C0.964844 22.5869 3.50372 19.78 4.74302 16.7856C5.93542 13.8984 6.07609 10.1068 8.4274 7.75553C10.772 5.41092 14.5703 5.27024 17.4575 4.07114C20.4519 2.83185 23.2587 0.292969 26.4474 0.292969C29.6361 0.292969 32.4429 2.83185 35.4373 4.07114C38.3245 5.26354 42.1161 5.40422 44.4674 7.75553Z" fill="url(#paint0_linear_1094_1150)"/>
<g filter="url(#filter0_b_1094_1150)">
<path d="M56.5416 16.443C58.8862 18.7876 59.0269 22.5859 60.226 25.4731C61.4653 28.4675 64.0042 31.2744 64.0042 34.463C64.0042 37.6517 61.4653 40.4585 60.226 43.4529C59.0336 46.3402 58.8929 50.1317 56.5416 52.483C54.1903 54.8344 50.3988 54.9683 47.5115 56.1674C44.5171 57.4067 41.7103 59.9456 38.5216 59.9456C35.333 59.9456 32.5261 57.4067 29.5317 56.1674C26.6445 54.975 22.8529 54.8344 20.5016 52.483C18.157 50.1384 18.0163 46.3402 16.8172 43.4529C15.6181 40.5657 13.0391 37.6517 13.0391 34.463C13.0391 31.2744 15.5779 28.4675 16.8172 25.4731C18.0096 22.5859 18.1503 18.7943 20.5016 16.443C22.8462 14.0984 26.6445 13.9577 29.5317 12.7586C32.5261 11.5193 35.333 8.98047 38.5216 8.98047C41.7103 8.98047 44.5171 11.5193 47.5115 12.7586C50.3988 13.951 54.1903 14.0917 56.5416 16.443Z" fill="url(#paint1_linear_1094_1150)"/>
<path d="M60.4728 25.371L60.4727 25.3707C60.0786 24.4218 59.8043 23.3857 59.5214 22.3166C59.3784 21.7766 59.2333 21.2282 59.0693 20.6783C58.588 19.064 57.9513 17.475 56.7305 16.2542C55.5065 15.0302 53.9177 14.3918 52.3039 13.9103C51.7484 13.7446 51.1946 13.5983 50.6495 13.4543C49.5871 13.1737 48.5578 12.9018 47.6137 12.5119C46.6175 12.0996 45.6532 11.5473 44.6713 10.9848C44.1921 10.7104 43.7088 10.4335 43.2155 10.1694C41.7327 9.37537 40.185 8.71341 38.5216 8.71341C36.8583 8.71341 35.3105 9.37537 33.8278 10.1694C33.3345 10.4335 32.8512 10.7104 32.372 10.9848C31.3901 11.5473 30.4257 12.0996 29.4296 12.5119L29.4293 12.512C28.4804 12.9061 27.4443 13.1803 26.3752 13.4633C25.8352 13.6062 25.2868 13.7514 24.7369 13.9153C23.1226 14.3967 21.5336 15.0334 20.3128 16.2542C19.0888 17.4782 18.4504 19.067 17.9689 20.6808C17.8032 21.2363 17.6569 21.7901 17.5129 22.3352C17.2323 23.3976 16.9604 24.4268 16.5705 25.371C16.1582 26.3671 15.6058 27.3315 15.0434 28.3134C14.769 28.7926 14.4921 29.2759 14.228 29.7692C13.434 31.2519 12.772 32.7997 12.772 34.463C12.772 36.1265 13.4441 37.7011 14.2429 39.1968C14.5173 39.7107 14.8045 40.2121 15.0875 40.706C15.6408 41.6721 16.1778 42.6096 16.5706 43.5554C16.9647 44.5043 17.2389 45.5404 17.5219 46.6095C17.6648 47.1495 17.81 47.6979 17.9739 48.2478C18.4553 49.8621 19.092 51.4511 20.3128 52.6719C21.5368 53.8959 23.1256 54.5343 24.7394 55.0157C25.2949 55.1815 25.8487 55.3278 26.3938 55.4717C27.4561 55.7524 28.4854 56.0243 29.4296 56.4142C30.4257 56.8265 31.3901 57.3788 32.372 57.9412C32.8512 58.2157 33.3345 58.4925 33.8278 58.7567C35.3105 59.5507 36.8583 60.2127 38.5216 60.2127C40.185 60.2127 41.7327 59.5507 43.2155 58.7567C43.7088 58.4925 44.1921 58.2157 44.6713 57.9412C45.6532 57.3788 46.6175 56.8265 47.6137 56.4142L47.614 56.4141C48.5628 56.02 49.5979 55.7465 50.6662 55.4643C51.2059 55.3218 51.7541 55.177 52.3038 55.0133C53.9175 54.5327 55.5064 53.896 56.7305 52.6719C57.9545 51.4479 58.5929 49.8591 59.0743 48.2453C59.2401 47.6898 59.3863 47.136 59.5303 46.5909C59.811 45.5284 60.0829 44.4991 60.4729 43.5549C60.8851 42.5588 61.4374 41.5945 61.9998 40.6127C62.2743 40.1335 62.5511 39.6502 62.8153 39.1569C63.6093 37.6741 64.2713 36.1264 64.2713 34.463C64.2713 32.7997 63.6093 31.2519 62.8153 29.7692C62.5511 29.2759 62.2743 28.7926 61.9998 28.3134C61.4374 27.3315 60.885 26.3671 60.4728 25.371Z" stroke="url(#paint2_linear_1094_1150)" stroke-width="0.534119"/>
</g>
<defs>
<filter id="filter0_b_1094_1150" x="-6.72438" y="-10.783" width="90.4917" height="90.4917" filterUnits="userSpaceOnUse" color-interpolation-filters="sRGB">
<feFlood flood-opacity="0" result="BackgroundImageFix"/>
<feGaussianBlur in="BackgroundImageFix" stdDeviation="9.61414"/>
<feComposite in2="SourceAlpha" operator="in" result="effect1_backgroundBlur_1094_1150"/>
<feBlend mode="normal" in="SourceGraphic" in2="effect1_backgroundBlur_1094_1150" result="shape"/>
</filter>
<linearGradient id="paint0_linear_1094_1150" x1="38.358" y1="5.89324" x2="14.6976" y2="45.3899" gradientUnits="userSpaceOnUse">
<stop stop-color="#10994D"/>
<stop offset="1" stop-color="#00FF79"/>
</linearGradient>
<linearGradient id="paint1_linear_1094_1150" x1="15.9163" y1="57.0683" x2="61.1269" y2="11.8577" gradientUnits="userSpaceOnUse">
<stop stop-color="white" stop-opacity="0.2"/>
<stop offset="1" stop-color="white" stop-opacity="0.49"/>
</linearGradient>
<linearGradient id="paint2_linear_1094_1150" x1="16.6366" y1="12.9888" x2="59.2387" y2="58.5402" gradientUnits="userSpaceOnUse">
<stop stop-color="white"/>
<stop offset="1" stop-color="white" stop-opacity="0"/>
</linearGradient>
</defs>
</svg>
