<svg width="117" height="112" viewBox="0 0 117 112" fill="none" xmlns="http://www.w3.org/2000/svg">
<g filter="url(#filter0_f_1094_1150)">
<path d="M76.5026 35.4626C78.8472 37.8072 78.9879 41.6054 80.187 44.4927C81.4263 47.4871 83.9651 50.2939 83.9651 53.4826C83.9651 56.6712 81.4263 59.4781 80.187 62.4725C78.9946 65.3597 78.8539 69.1513 76.5026 71.5026C74.1513 73.8539 70.3597 73.9879 67.4725 75.187C64.4781 76.4263 61.6712 78.9651 58.4826 78.9651C55.2939 78.9651 52.4871 76.4263 49.4927 75.187C46.6054 73.9946 42.8139 73.8539 40.4626 71.5026C38.1179 69.158 37.9773 65.3597 36.7782 62.4725C35.5791 59.5852 33 56.6712 33 53.4826C33 50.2939 35.5389 47.4871 36.7782 44.4927C37.9706 41.6054 38.1113 37.8139 40.4626 35.4626C42.8072 33.1179 46.6054 32.9773 49.4927 31.7782C52.4871 30.5389 55.2939 28 58.4826 28C61.6712 28 64.4781 30.5389 67.4725 31.7782C70.3597 32.9706 74.1513 33.1113 76.5026 35.4626Z" fill="url(#paint0_linear_1094_1150)" fill-opacity="0.4"/>
</g>
<path d="M89.4674 36.7555C91.812 39.1001 91.9527 42.8984 93.1518 45.7856C94.3911 48.78 96.93 51.5869 96.93 54.7755C96.93 57.9642 94.3911 60.771 93.1518 63.7654C91.9594 66.6527 91.8187 70.4442 89.4674 72.7955C87.1161 75.1469 83.3245 75.2808 80.4373 76.4799C77.4429 77.7192 74.6361 80.2581 71.4474 80.2581C68.2587 80.2581 65.4519 77.7192 62.4575 76.4799C59.5703 75.2875 55.7787 75.1469 53.4274 72.7955C51.0828 70.4509 50.9421 66.6527 49.743 63.7654C48.5439 60.8782 45.9648 57.9642 45.9648 54.7755C45.9648 51.5869 48.5037 48.78 49.743 45.7856C50.9354 42.8984 51.0761 39.1068 53.4274 36.7555C55.772 34.4109 59.5703 34.2702 62.4575 33.0711C65.4519 31.8318 68.2587 29.293 71.4474 29.293C74.6361 29.293 77.4429 31.8318 80.4373 33.0711C83.3245 34.2635 87.1161 34.4042 89.4674 36.7555Z" fill="url(#paint1_linear_1094_1150)"/>
<g filter="url(#filter1_b_1094_1150)">
<path d="M101.542 45.443C103.886 47.7876 104.027 51.5859 105.226 54.4731C106.465 57.4675 109.004 60.2744 109.004 63.463C109.004 66.6517 106.465 69.4585 105.226 72.4529C104.034 75.3402 103.893 79.1317 101.542 81.483C99.1903 83.8344 95.3988 83.9683 92.5115 85.1674C89.5171 86.4067 86.7103 88.9456 83.5216 88.9456C80.333 88.9456 77.5261 86.4067 74.5317 85.1674C71.6445 83.975 67.8529 83.8344 65.5016 81.483C63.157 79.1384 63.0163 75.3402 61.8172 72.4529C60.6181 69.5657 58.0391 66.6517 58.0391 63.463C58.0391 60.2744 60.5779 57.4675 61.8172 54.4731C63.0096 51.5859 63.1503 47.7943 65.5016 45.443C67.8462 43.0984 71.6445 42.9577 74.5317 41.7586C77.5261 40.5193 80.333 37.9805 83.5216 37.9805C86.7103 37.9805 89.5171 40.5193 92.5115 41.7586C95.3988 42.951 99.1903 43.0917 101.542 45.443Z" fill="url(#paint2_linear_1094_1150)"/>
<path d="M105.473 54.371L105.473 54.3707C105.079 53.4218 104.804 52.3857 104.521 51.3166C104.378 50.7766 104.233 50.2282 104.069 49.6783C103.588 48.064 102.951 46.475 101.73 45.2542C100.506 44.0302 98.9177 43.3918 97.3039 42.9103C96.7484 42.7446 96.1946 42.5983 95.6495 42.4543C94.5871 42.1737 93.5578 41.9018 92.6137 41.5119C91.6175 41.0996 90.6532 40.5473 89.6713 39.9848C89.1921 39.7104 88.7088 39.4335 88.2155 39.1694C86.7327 38.3754 85.185 37.7134 83.5216 37.7134C81.8583 37.7134 80.3105 38.3754 78.8278 39.1694C78.3345 39.4335 77.8512 39.7104 77.372 39.9848C76.3901 40.5473 75.4257 41.0996 74.4296 41.5119L74.4293 41.512C73.4804 41.9061 72.4443 42.1803 71.3752 42.4633C70.8352 42.6062 70.2868 42.7514 69.7369 42.9153C68.1226 43.3967 66.5336 44.0334 65.3128 45.2542C64.0888 46.4782 63.4504 48.067 62.9689 49.6808C62.8032 50.2363 62.6569 50.7901 62.5129 51.3352C62.2323 52.3976 61.9604 53.4268 61.5705 54.371C61.1582 55.3671 60.6058 56.3315 60.0434 57.3134C59.769 57.7926 59.4921 58.2759 59.228 58.7692C58.434 60.2519 57.772 61.7997 57.772 63.463C57.772 65.1265 58.4441 66.7011 59.2429 68.1968C59.5173 68.7107 59.8045 69.2121 60.0875 69.706C60.6408 70.6721 61.1778 71.6096 61.5706 72.5554C61.9647 73.5043 62.2389 74.5404 62.5219 75.6095C62.6648 76.1495 62.81 76.6979 62.9739 77.2478C63.4553 78.8621 64.092 80.4511 65.3128 81.6719C66.5368 82.8959 68.1256 83.5343 69.7394 84.0157C70.2949 84.1815 70.8487 84.3278 71.3938 84.4717C72.4561 84.7524 73.4854 85.0243 74.4296 85.4142C75.4257 85.8265 76.3901 86.3788 77.372 86.9412C77.8512 87.2157 78.3345 87.4925 78.8278 87.7567C80.3105 88.5507 81.8583 89.2127 83.5216 89.2127C85.185 89.2127 86.7327 88.5507 88.2155 87.7567C88.7088 87.4925 89.1921 87.2157 89.6713 86.9412C90.6532 86.3788 91.6175 85.8265 92.6137 85.4142L92.614 85.4141C93.5628 85.02 94.5979 84.7465 95.6662 84.4643C96.2059 84.3218 96.7541 84.177 97.3038 84.0133C98.9175 83.5327 100.506 82.896 101.73 81.6719C102.954 80.4479 103.593 78.8591 104.074 77.2453C104.24 76.6898 104.386 76.136 104.53 75.5909C104.811 74.5284 105.083 73.4991 105.473 72.5549C105.885 71.5588 106.437 70.5945 107 69.6127C107.274 69.1335 107.551 68.6502 107.815 68.1569C108.609 66.6741 109.271 65.1264 109.271 63.463C109.271 61.7997 108.609 60.2519 107.815 58.7692C107.551 58.2759 107.274 57.7926 107 57.3134C106.437 56.3315 105.885 55.3671 105.473 54.371Z" stroke="url(#paint3_linear_1094_1150)" stroke-width="0.534119"/>
</g>
<defs>
<filter id="filter0_f_1094_1150" x="0.952854" y="-4.04715" width="115.059" height="115.059" filterUnits="userSpaceOnUse" color-interpolation-filters="sRGB">
<feFlood flood-opacity="0" result="BackgroundImageFix"/>
<feBlend mode="normal" in="SourceGraphic" in2="BackgroundImageFix" result="shape"/>
<feGaussianBlur stdDeviation="16.0236" result="effect1_foregroundBlur_1094_1150"/>
</filter>
<filter id="filter1_b_1094_1150" x="38.2756" y="18.217" width="90.4917" height="90.4917" filterUnits="userSpaceOnUse" color-interpolation-filters="sRGB">
<feFlood flood-opacity="0" result="BackgroundImageFix"/>
<feGaussianBlur in="BackgroundImageFix" stdDeviation="9.61414"/>
<feComposite in2="SourceAlpha" operator="in" result="effect1_backgroundBlur_1094_1150"/>
<feBlend mode="normal" in="SourceGraphic" in2="effect1_backgroundBlur_1094_1150" result="shape"/>
</filter>
<linearGradient id="paint0_linear_1094_1150" x1="70.3932" y1="33.6003" x2="46.7327" y2="73.0969" gradientUnits="userSpaceOnUse">
<stop stop-color="#10994D"/>
<stop offset="1" stop-color="#00FF79"/>
</linearGradient>
<linearGradient id="paint1_linear_1094_1150" x1="83.358" y1="34.8932" x2="59.6976" y2="74.3899" gradientUnits="userSpaceOnUse">
<stop stop-color="#10994D"/>
<stop offset="1" stop-color="#00FF79"/>
</linearGradient>
<linearGradient id="paint2_linear_1094_1150" x1="60.9163" y1="86.0683" x2="106.127" y2="40.8577" gradientUnits="userSpaceOnUse">
<stop stop-color="white" stop-opacity="0.2"/>
<stop offset="1" stop-color="white" stop-opacity="0.49"/>
</linearGradient>
<linearGradient id="paint3_linear_1094_1150" x1="61.6366" y1="41.9888" x2="104.239" y2="87.5402" gradientUnits="userSpaceOnUse">
<stop stop-color="white"/>
<stop offset="1" stop-color="white" stop-opacity="0"/>
</linearGradient>
</defs>
</svg>
