<svg width="27" height="26" viewBox="0 0 27 26" fill="none" xmlns="http://www.w3.org/2000/svg">
<g filter="url(#filter0_b_1094_1177)">
<path fill-rule="evenodd" clip-rule="evenodd" d="M25.6667 11.55C26.3754 11.55 26.95 12.1246 26.95 12.8333C26.95 13.5421 26.3754 14.1167 25.6667 14.1167H17.8225C16.1656 14.1167 14.8225 15.4598 14.8225 17.1167V24.3192C14.8225 25.0634 14.2192 25.6667 13.475 25.6667C12.7308 25.6667 12.1275 25.0634 12.1275 24.3192V17.1167C12.1275 15.4598 10.7844 14.1167 9.12752 14.1167H1.28333C0.574569 14.1167 0 13.5421 0 12.8333C0 12.1246 0.574568 11.55 1.28333 11.55H9.12751C10.7844 11.55 12.1275 10.2069 12.1275 8.55V1.34749C12.1275 0.603291 12.7308 0 13.475 0C14.2192 0 14.8225 0.603289 14.8225 1.34748V8.55C14.8225 10.2069 16.1656 11.55 17.8225 11.55H25.6667Z" fill="url(#paint0_linear_1094_1177)" fill-opacity="0.4"/>
</g>
<defs>
<filter id="filter0_b_1094_1177" x="-18" y="-18" width="62.9492" height="61.668" filterUnits="userSpaceOnUse" color-interpolation-filters="sRGB">
<feFlood flood-opacity="0" result="BackgroundImageFix"/>
<feGaussianBlur in="BackgroundImageFix" stdDeviation="9"/>
<feComposite in2="SourceAlpha" operator="in" result="effect1_backgroundBlur_1094_1177"/>
<feBlend mode="normal" in="SourceGraphic" in2="effect1_backgroundBlur_1094_1177" result="shape"/>
</filter>
<linearGradient id="paint0_linear_1094_1177" x1="1.52148" y1="24.2176" x2="24.263" y2="0.339027" gradientUnits="userSpaceOnUse">
<stop stop-color="white" stop-opacity="0.2"/>
<stop offset="1" stop-color="white" stop-opacity="0.49"/>
</linearGradient>
</defs>
</svg>
