<svg width="45" height="39" viewBox="0 0 45 39" fill="none" xmlns="http://www.w3.org/2000/svg">
<g filter="url(#filter0_b_1094_1146)">
<path d="M34.5545 11.751C31.1881 11.751 29.8118 9.50791 31.4857 6.75667C32.4528 5.16201 31.8762 3.12925 30.1837 2.21801L26.9662 0.483153C25.4968 -0.340465 23.5998 0.150201 22.7256 1.53458L22.521 1.86753C20.8471 4.61877 18.0945 4.61877 16.402 1.86753L16.1974 1.53458C15.3605 0.150201 13.4634 -0.340465 11.9941 0.483153L8.77652 2.21801C7.08403 3.12925 6.50747 5.17953 7.4746 6.7742C9.16709 9.50791 7.79078 11.751 4.4244 11.751C2.49012 11.751 0.890625 13.2405 0.890625 15.0805V18.1647C0.890625 19.9871 2.47152 21.4942 4.4244 21.4942C7.79078 21.4942 9.16709 23.7372 7.4746 26.4885C6.50747 28.0831 7.08403 30.1159 8.77652 31.0271L11.9941 32.762C13.4634 33.5856 15.3605 33.0949 16.2346 31.7106L16.4392 31.3776C18.1131 28.6264 20.8657 28.6264 22.5582 31.3776L22.7628 31.7106C23.637 33.0949 25.534 33.5856 27.0034 32.762L30.2209 31.0271C31.9134 30.1159 32.49 28.0656 31.5229 26.4885C29.8304 23.7372 31.2067 21.4942 34.5731 21.4942C36.5073 21.4942 38.1068 20.0047 38.1068 18.1647V15.0805C38.0882 13.258 36.5073 11.751 34.5545 11.751ZM19.4894 22.3178C16.1602 22.3178 13.4448 19.7593 13.4448 16.6226C13.4448 13.4858 16.1602 10.9273 19.4894 10.9273C22.8186 10.9273 25.534 13.4858 25.534 16.6226C25.534 19.7593 22.8186 22.3178 19.4894 22.3178Z" fill="url(#paint0_linear_1094_1146)" fill-opacity="0.6"/>
<path d="M30.0652 2.43813L30.0651 2.43806L26.8475 0.703205L26.8439 0.701258L26.8439 0.701229C25.4902 -0.0575929 23.7408 0.396664 22.9378 1.66676C22.9376 1.66719 22.9373 1.66762 22.937 1.66806L22.7346 1.99748C22.7346 1.99759 22.7345 1.9977 22.7344 1.99781C21.8674 3.42265 20.6905 4.18096 19.4685 4.18096C18.2468 4.18096 17.0654 3.42293 16.1891 1.99853L16.189 1.99842L15.9844 1.66546L15.9835 1.66393C15.2188 0.399093 13.4723 -0.0588266 12.1164 0.701229L12.1128 0.703235L12.1128 0.703205L8.89517 2.43806L8.89503 2.43813C7.3241 3.28392 6.79845 5.17602 7.68778 6.6436C8.56275 8.05739 8.6797 9.40717 8.05971 10.4184C7.44336 11.4237 6.15456 12.001 4.4244 12.001C2.61308 12.001 1.14062 13.3932 1.14062 15.0805V18.1647C1.14062 19.8361 2.59624 21.2442 4.4244 21.2442C6.15459 21.2442 7.44353 21.8215 8.05985 22.8292C8.67964 23.8425 8.56269 25.1965 7.68797 26.6188C6.79872 28.0858 7.32339 29.9608 8.89503 30.807L8.89517 30.8071L12.1128 32.5419L12.1164 32.5439L12.1164 32.5439C13.4701 33.3027 15.2195 32.8485 16.0225 31.5783C16.0227 31.5779 16.023 31.5775 16.0233 31.5771L16.2257 31.2477C16.2257 31.2475 16.2258 31.2474 16.2259 31.2473C17.0929 29.8225 18.2698 29.0642 19.4918 29.0642C20.7135 29.0642 21.8949 29.8222 22.7712 31.2466L22.7712 31.2467L22.9742 31.5771C22.9745 31.5775 22.9747 31.5779 22.975 31.5783C23.778 32.8485 25.5274 33.3027 26.8811 32.5439L26.8847 32.5419L26.8847 32.5419L30.1023 30.8071L30.1024 30.807C31.6745 29.9606 32.1981 28.0683 31.3099 26.6195L30.0652 2.43813ZM30.0652 2.43813C31.637 3.28437 32.1616 5.15964 31.2721 6.62673M30.0652 2.43813L31.2721 6.62673M31.2721 6.62673C30.4064 8.04956 30.2948 9.40351 30.9169 10.4164M31.2721 6.62673L30.9169 10.4164M30.9169 10.4164C31.5356 11.4236 32.8241 12.001 34.5545 12.001M30.9169 10.4164L34.5545 12.001M34.5545 12.001C36.3814 12.001 37.8389 13.4082 37.8568 15.0816V18.1647C37.8568 19.852 36.3844 21.2442 34.5731 21.2442C32.8429 21.2442 31.5539 21.8215 30.9376 22.8292M34.5545 12.001L30.9376 22.8292M30.9376 22.8292C30.3178 23.8426 30.4348 25.1967 31.3097 26.6192L30.9376 22.8292ZM13.1948 16.6226C13.1948 19.9112 16.0364 22.5678 19.4894 22.5678C22.9425 22.5678 25.784 19.9112 25.784 16.6226C25.784 13.3339 22.9425 10.6773 19.4894 10.6773C16.0364 10.6773 13.1948 13.3339 13.1948 16.6226Z" stroke="url(#paint1_linear_1094_1146)" stroke-opacity="0.08" stroke-width="0.5"/>
</g>
<g filter="url(#filter1_b_1094_1146)">
<path d="M41.5772 16.833C38.3355 16.833 37.0102 14.5899 38.622 11.8387C39.5534 10.244 38.9982 8.21128 37.3683 7.30004L34.2699 5.56518C32.855 4.74157 31.0282 5.23223 30.1865 6.61661L29.9894 6.94956C28.3775 9.7008 25.7269 9.7008 24.0971 6.94956L23.9001 6.61661C23.0941 5.23223 21.2673 4.74157 19.8524 5.56518L16.754 7.30004C15.1242 8.21128 14.569 10.2616 15.5003 11.8562C17.1301 14.5899 15.8048 16.833 12.563 16.833C10.7004 16.833 9.16016 18.3225 9.16016 20.1625V23.2467C9.16016 25.0692 10.6825 26.5762 12.563 26.5762C15.8048 26.5762 17.1301 28.8193 15.5003 31.5705C14.569 33.1652 15.1242 35.1979 16.754 36.1092L19.8524 37.844C21.2673 38.6676 23.0941 38.177 23.9359 36.7926L24.1329 36.4596C25.7448 33.7084 28.3955 33.7084 30.0253 36.4596L30.2223 36.7926C31.064 38.177 32.8909 38.6676 34.3057 37.844L37.4042 36.1092C39.034 35.1979 39.5892 33.1476 38.6579 31.5705C37.0281 28.8193 38.3534 26.5762 41.5951 26.5762C43.4577 26.5762 44.998 25.0867 44.998 23.2467V20.1625C44.9801 18.34 43.4577 16.833 41.5772 16.833ZM27.0701 27.3998C23.8642 27.3998 21.2494 24.8414 21.2494 21.7046C21.2494 18.5678 23.8642 16.0094 27.0701 16.0094C30.276 16.0094 32.8909 18.5678 32.8909 21.7046C32.8909 24.8414 30.276 27.3998 27.0701 27.3998Z" fill="url(#paint2_linear_1094_1146)"/>
<path d="M37.2462 7.51817L37.2463 7.51825C38.755 8.36177 39.2663 10.2398 38.4062 11.7126C37.5731 13.1348 37.467 14.4848 38.0643 15.4948C38.6606 16.503 39.9053 17.083 41.5772 17.083C43.3229 17.083 44.7306 18.4816 44.748 20.1635V23.2467C44.748 24.9427 43.3257 26.3262 41.5951 26.3262C39.9233 26.3262 38.6783 26.9062 38.0843 27.9148C37.489 28.9254 37.6004 30.2757 38.4426 31.6976C39.3015 33.1522 38.7912 35.0473 37.2822 35.891L37.282 35.891L34.1836 37.6259L34.1836 37.6259L34.18 37.628C32.8859 38.3813 31.2096 37.9336 30.4366 36.6639C30.4364 36.6635 30.4361 36.6631 30.4359 36.6627L30.2404 36.3323L30.2404 36.3322C29.3976 34.9095 28.2577 34.1462 27.0724 34.1462C25.8868 34.1462 24.7513 34.9098 23.9174 36.3329C23.9173 36.333 23.9173 36.3331 23.9172 36.3333L23.7223 36.6627C23.722 36.6631 23.7218 36.6636 23.7215 36.664C22.9485 37.9336 21.2723 38.3813 19.9782 37.628L19.9782 37.6279L19.9745 37.6259L16.8761 35.891L16.876 35.891C15.3675 35.0476 14.8561 33.17 15.7157 31.6973C16.5578 30.2755 16.6691 28.9253 16.0739 27.9148C15.4799 26.9062 14.2348 26.3262 12.563 26.3262C10.8163 26.3262 9.41016 24.9268 9.41016 23.2467V20.1625C9.41016 18.4665 10.8325 17.083 12.563 17.083C14.2348 17.083 15.4797 16.5031 16.0738 15.4969C16.6691 14.4885 16.5579 13.1425 15.7156 11.7292C14.8559 10.256 15.3682 8.36128 16.876 7.51825L16.8761 7.51817L19.9745 5.78332L19.9746 5.78335L19.9782 5.78124C21.2743 5.02673 22.9479 5.47794 23.684 6.7424L23.6849 6.74392L23.8819 7.07687L23.882 7.07698C24.7248 8.49967 25.8647 9.26299 27.05 9.26299C28.2355 9.26299 29.371 8.49943 30.2048 7.07648C30.2049 7.0763 30.205 7.07612 30.2051 7.07594L30.4001 6.7465C30.4003 6.7461 30.4005 6.74571 30.4008 6.74531C31.1737 5.47559 32.85 5.02792 34.1442 5.78124L34.1441 5.78127L34.1478 5.78332L37.2462 7.51817ZM20.9994 21.7046C20.9994 24.9845 23.7313 27.6498 27.0701 27.6498C30.4089 27.6498 33.1409 24.9845 33.1409 21.7046C33.1409 18.4247 30.4089 15.7594 27.0701 15.7594C23.7313 15.7594 20.9994 18.4247 20.9994 21.7046Z" stroke="url(#paint3_linear_1094_1146)" stroke-opacity="0.2" stroke-width="0.5"/>
</g>
<defs>
<filter id="filter0_b_1094_1146" x="-17.1094" y="-17.918" width="73.2148" height="69.082" filterUnits="userSpaceOnUse" color-interpolation-filters="sRGB">
<feFlood flood-opacity="0" result="BackgroundImageFix"/>
<feGaussianBlur in="BackgroundImageFix" stdDeviation="9"/>
<feComposite in2="SourceAlpha" operator="in" result="effect1_backgroundBlur_1094_1146"/>
<feBlend mode="normal" in="SourceGraphic" in2="effect1_backgroundBlur_1094_1146" result="shape"/>
</filter>
<filter id="filter1_b_1094_1146" x="-8.83984" y="-12.8359" width="71.8359" height="69.082" filterUnits="userSpaceOnUse" color-interpolation-filters="sRGB">
<feFlood flood-opacity="0" result="BackgroundImageFix"/>
<feGaussianBlur in="BackgroundImageFix" stdDeviation="9"/>
<feComposite in2="SourceAlpha" operator="in" result="effect1_backgroundBlur_1094_1146"/>
<feBlend mode="normal" in="SourceGraphic" in2="effect1_backgroundBlur_1094_1146" result="shape"/>
</filter>
<linearGradient id="paint0_linear_1094_1146" x1="2.9917" y1="31.2955" x2="32.1352" y2="-1.4909" gradientUnits="userSpaceOnUse">
<stop stop-color="white" stop-opacity="0.2"/>
<stop offset="1" stop-color="white" stop-opacity="0.49"/>
</linearGradient>
<linearGradient id="paint1_linear_1094_1146" x1="3.51767" y1="2.6838" x2="30.7661" y2="35.4605" gradientUnits="userSpaceOnUse">
<stop stop-color="white"/>
<stop offset="1" stop-color="white" stop-opacity="0"/>
</linearGradient>
<linearGradient id="paint2_linear_1094_1146" x1="11.1834" y1="36.3775" x2="40.4355" y2="4.68776" gradientUnits="userSpaceOnUse">
<stop stop-color="#E451E7"/>
<stop offset="1" stop-color="#F75B6E" stop-opacity="0.6"/>
</linearGradient>
<linearGradient id="paint3_linear_1094_1146" x1="11.6899" y1="7.76583" x2="39.1078" y2="39.5249" gradientUnits="userSpaceOnUse">
<stop stop-color="white"/>
<stop offset="1" stop-color="white" stop-opacity="0"/>
</linearGradient>
</defs>
</svg>
